<?xml version="1.0" encoding="UTF-8" standalone="no"?>
<!DOCTYPE svg PUBLIC "-//W3C//DTD SVG 1.1//EN" "http://www.w3.org/Graphics/SVG/1.1/DTD/svg11.dtd">
<svg width="100%" height="100%" viewBox="0 0 1080 1080" version="1.1" xmlns="http://www.w3.org/2000/svg" xmlns:xlink="http://www.w3.org/1999/xlink" xml:space="preserve" xmlns:serif="http://www.serif.com/" style="fill-rule:evenodd;clip-rule:evenodd;stroke-linejoin:round;stroke-miterlimit:2;">
    <g transform="matrix(1.21623,0,0,1.21623,-117.412,-127.985)">
        <g id="publishing" transform="matrix(1.00492,0,0,1.00492,-0.849359,-3.92964)">
            <g id="publishing-elikapink" serif:id="publishing elikapink" transform="matrix(3.15112,0,0,0.406655,-48.0839,718.195)">
                <path d="M75.493,274.665L75.493,298.206L70.028,298.206L70.028,199.021L75.333,199.021C77.402,199.021 78.939,204.07 79.867,212.45C80.538,218.506 80.929,226.445 80.929,236.365C80.929,248.771 80.332,258.369 79.309,264.993C78.404,270.856 77.116,274.444 75.493,274.665Z" style="fill:rgb(37,26,47);"/>
                <path d="M89.742,259.425C89.808,259.51 89.909,259.62 89.989,259.62C90.064,259.62 90.158,259.52 90.221,259.441C90.236,258.774 90.259,257.591 90.259,256.78L90.259,199.021L95.723,199.021L95.723,256.457C95.723,268.957 95.184,279.67 94.211,287.357C93.248,294.955 91.84,299.818 89.989,299.818C88.122,299.818 86.711,294.947 85.75,287.357C84.777,279.669 84.241,268.958 84.241,256.457L84.241,199.021L89.706,199.021L89.706,256.78C89.706,257.586 89.728,258.762 89.742,259.425Z" style="fill:rgb(37,26,47);"/>
                <path d="M110.31,263.978C110.31,272.681 109.955,279.931 109.333,285.571C108.486,293.261 107.08,298.206 105.186,298.206L99.646,298.206L99.646,199.021L105.061,199.021C106.849,199.021 108.202,203.375 109.024,210.269C109.654,215.554 110.019,222.429 110.019,230.885C110.019,236.35 109.844,241.261 109.498,245.571C110.033,250.478 110.31,256.633 110.31,263.978ZM106.658,246.446L106.649,246.508C106.62,246.668 106.59,246.826 106.559,246.981C106.596,247.125 106.632,247.273 106.666,247.425L106.658,246.446Z" style="fill:rgb(37,26,47);"/>
                <path d="M113.622,298.206L113.622,199.021L119.087,199.021C119.087,199.021 119.087,257.793 119.087,257.793L123.275,257.793L123.275,298.206L113.622,298.206Z" style="fill:rgb(37,26,47);"/>
                <rect x="126.67" y="199.021" width="5.465" height="99.185" style="fill:rgb(37,26,47);"/>
                <path d="M136.266,249.52C135.959,245.021 135.794,239.699 135.794,233.571C135.794,213.399 137.957,198.054 141.085,198.054C144.291,198.054 146.526,212.955 146.732,235.477L146.84,247.278L146.476,247.278C146.762,251.512 146.902,256.419 146.902,261.937C146.902,283.709 144.801,299.281 141.251,299.281C137.783,299.281 135.638,284.29 135.397,261.438L135.271,249.52L136.266,249.52Z" style="fill:rgb(37,26,47);"/>
                <path d="M150.256,298.206L150.256,199.021L155.721,199.021L155.721,227.709L156.551,227.709L156.551,199.021L162.016,199.021L162.016,298.206L156.551,298.206L156.551,267.37L155.721,267.37L155.721,298.206L150.256,298.206Z" style="fill:rgb(37,26,47);"/>
                <rect x="165.966" y="199.021" width="5.465" height="99.185" style="fill:rgb(37,26,47);"/>
                <path d="M181.969,293.116L180.624,276.793L180.624,298.206L175.381,298.206L175.381,199.021L180.397,199.021L181.87,216.897L181.87,199.021L187.113,199.021L187.113,298.206L182.388,298.206L181.969,293.116Z" style="fill:rgb(37,26,47);"/>
                <path d="M203.365,233.189L203.485,233.189L203.515,236.932L203.956,247.922L203.587,247.922C203.584,261.982 203.007,274.207 202.007,283.23C200.875,293.451 199.193,299.818 197.075,299.818C193.386,299.818 190.481,278.825 190.481,248.184C190.481,219.066 193.252,197.409 196.992,197.409C200.142,197.409 202.471,211.461 203.365,233.189Z" style="fill:rgb(37,26,47);"/>
                <path d="M214.705,298.206L214.705,199.021L220.17,199.021C220.17,199.021 220.17,257.793 220.17,257.793L224.357,257.793L224.357,298.206L214.705,298.206Z" style="fill:rgb(37,26,47);"/>
                <rect x="227.752" y="199.021" width="5.465" height="99.185" style="fill:rgb(37,26,47);"/>
                <path d="M237.167,298.206L237.167,199.021L242.67,199.021L244.188,230.658L245.697,199.021L251.201,199.021L251.201,298.206L237.167,298.206Z" style="fill:rgb(37,26,47);"/>
                <rect x="255.151" y="199.021" width="5.465" height="99.185" style="fill:rgb(37,26,47);"/>
                <path d="M266.854,298.206L266.854,239.434L263.804,239.434L263.804,199.021L275.369,199.021L275.369,239.434C275.369,239.434 272.319,239.434 272.319,239.434L272.319,298.206L266.854,298.206Z" style="fill:rgb(37,26,47);"/>
                <path d="M287.946,238.682L287.946,258.545L288.445,258.545L288.445,298.206L278.557,298.206L278.557,199.021L288.348,199.021L288.348,238.682L287.946,238.682Z" style="fill:rgb(37,26,47);"/>
                <path d="M297.256,298.206L291.951,298.206L291.951,199.021L297.256,199.021C299.253,199.021 300.867,204.27 301.995,212.808C303.142,221.486 303.808,233.702 303.808,248.184C303.808,276.924 301.195,298.206 297.256,298.206ZM297.416,238.662L297.416,258.577C297.667,258.425 297.872,257.989 298.013,256.822C298.239,254.958 298.274,251.982 298.274,248.184C298.274,244.835 298.235,242.146 298.022,240.452C297.877,239.298 297.669,238.832 297.416,238.662Z" style="fill:rgb(37,26,47);"/>
            </g>
            <g id="publishing-tarawera" serif:id="publishing tarawera" transform="matrix(2.62672,0,0,0.469541,49.7833,709.52)">
                <path d="M54.238,253.769C57.183,253.769 58.953,245.707 58.953,231.511C58.953,217.402 57.183,210.041 54.238,210.041L49.852,210.041L49.852,272.96L52.813,272.96L52.813,253.769L54.238,253.769ZM54.223,223.974C55.397,223.974 56.008,226.779 56.008,231.686C56.008,236.506 55.397,239.836 54.223,239.836L52.813,239.836L52.813,223.974L54.223,223.974Z" style="fill-rule:nonzero;"/>
                <path d="M76.451,210.041L73.49,210.041L73.49,248.161C73.49,254.733 73.067,259.465 71.579,259.465C70.075,259.465 69.652,254.733 69.652,248.161L69.652,210.041L66.692,210.041L66.692,247.898C66.692,263.145 68.383,274.275 71.579,274.275C74.743,274.275 76.451,263.145 76.451,247.898L76.451,210.041Z" style="fill-rule:nonzero;"/>
                <path d="M93.713,254.032C93.713,247.372 93.071,242.727 91.927,240.011C92.867,236.856 93.384,232.562 93.384,227.042C93.384,216.088 91.849,210.041 89.389,210.041L84.878,210.041L84.878,272.96L89.53,272.96C92.146,272.96 93.713,265.862 93.713,254.032ZM89.154,223.098C90.141,223.098 90.596,225.201 90.596,228.444C90.596,231.861 90.141,233.964 89.154,233.964L87.557,233.964L87.557,223.098L89.154,223.098ZM89.295,247.021C90.408,247.021 90.925,249.563 90.925,253.418C90.925,257.449 90.408,259.903 89.295,259.903L87.557,259.903L87.557,247.021L89.295,247.021Z" style="fill-rule:nonzero;"/>
                <path d="M109.142,272.96L109.142,257.975L104.412,257.975L104.412,210.041L101.451,210.041L101.451,272.96L109.142,272.96Z" style="fill-rule:nonzero;"/>
                <rect x="116.975" y="210.041" width="2.961" height="62.919" style="fill-rule:nonzero;"/>
                <path d="M137.401,252.367C137.401,243.253 136.336,237.732 134.331,235.542L132.154,233.176C131.558,232.562 131.057,230.897 131.057,228.093C131.057,224.675 131.59,222.047 132.467,222.047C133.454,222.047 134.143,225.727 134.221,231.423L137.213,231.423C137.041,217.84 135.114,209.252 132.436,209.252C129.914,209.252 128.065,217.49 128.065,229.232C128.065,239.397 129.256,245.269 131.057,247.197L133.109,249.387C133.767,250.088 134.253,252.104 134.253,254.821C134.253,258.764 133.579,260.955 132.561,260.955C131.339,260.955 130.634,257.187 130.603,251.228L127.611,251.228C127.815,265.161 129.694,273.836 132.624,273.836C135.553,273.836 137.401,265.336 137.401,252.367Z" style="fill-rule:nonzero;"/>
                <path d="M148.147,272.96L148.147,247.81L152.298,247.81L152.298,272.96L155.259,272.96L155.259,210.041L152.298,210.041L152.298,233.439L148.147,233.439L148.147,210.041L145.187,210.041L145.187,272.96L148.147,272.96Z" style="fill-rule:nonzero;"/>
                <rect x="163.718" y="210.041" width="2.961" height="62.919" style="fill-rule:nonzero;"/>
                <path d="M182.327,272.96L185.178,272.96L185.178,210.041L182.468,210.041L182.468,246.408L178.317,210.041L175.137,210.041L175.137,272.96L177.847,272.96L177.847,233.701L182.327,272.96Z" style="fill-rule:nonzero;"/>
                <path d="M198.822,274.275C202.55,274.275 204.79,258.676 204.555,237.908L198.681,237.908L198.681,250.965L201.391,250.965C201.062,256.223 200.263,260.254 198.979,260.254C196.942,260.254 196.018,252.104 196.018,241.588C196.018,229.232 197.193,223.536 198.65,223.536C199.793,223.536 200.623,227.129 200.905,231.949L204.414,231.949C203.631,217.84 201.548,208.727 198.728,208.727C195.423,208.727 192.979,222.572 192.979,241.15C192.979,260.779 195.548,274.275 198.822,274.275Z" style="fill-rule:nonzero;"/>
                <path d="M229.603,272.96L229.603,257.975L224.872,257.975L224.872,210.041L221.911,210.041L221.911,272.96L229.603,272.96Z" style="fill-rule:nonzero;"/>
                <rect x="237.435" y="210.041" width="2.961" height="62.919" style="fill-rule:nonzero;"/>
                <path d="M253.945,272.96L256.389,272.96L258.817,236.243L258.817,272.96L261.496,272.96L261.496,210.041L258.003,210.041L255.183,252.717L252.348,210.041L248.854,210.041L248.854,272.96L251.533,272.96L251.533,236.681L253.945,272.96Z" style="fill-rule:nonzero;"/>
                <rect x="269.955" y="210.041" width="2.961" height="62.919" style="fill-rule:nonzero;"/>
                <path d="M286.919,272.96L286.919,225.026L290.366,225.026L290.366,210.041L280.513,210.041L280.513,225.026L283.959,225.026L283.959,272.96L286.919,272.96Z" style="fill-rule:nonzero;"/>
                <path d="M305.92,258.589L300.923,258.589L300.923,247.81L305.356,247.81L305.356,233.439L300.923,233.439L300.923,224.413L305.811,224.413L305.811,210.041L297.963,210.041L297.963,272.96L305.92,272.96L305.92,258.589Z" style="fill-rule:nonzero;"/>
                <path d="M318.264,272.96C321.742,272.96 324.06,259.465 324.06,241.15C324.06,222.835 321.82,210.041 318.264,210.041L313.878,210.041L313.878,272.96L318.264,272.96ZM316.839,224.325L318.092,224.325C320.019,224.325 321.021,230.021 321.021,241.15C321.021,252.98 320.05,258.676 318.092,258.676L316.839,258.676L316.839,224.325Z" style="fill-rule:nonzero;"/>
            </g>
        </g>
        <g id="lixeira">
            <g id="lixeira-elikapink" serif:id="lixeira elikapink" transform="matrix(2.62672,0,0,1.26819,47.5427,388.66)">
                <g transform="matrix(0.380703,0,0,0.788523,-18.0997,-306.467)">
                    <path d="M172.428,786.408L172.428,642.71L228.413,642.71L228.413,733.407L278.488,733.407L278.488,786.408L172.428,786.408Z" style="fill:rgb(37,26,47);"/>
                </g>
                <g transform="matrix(0.380703,0,0,0.788523,-18.0997,-306.467)">
                    <rect x="262.131" y="642.71" width="55.985" height="143.698" style="fill:rgb(37,26,47);"/>
                </g>
                <g transform="matrix(0.380703,0,0,0.788523,-18.0997,-306.467)">
                    <path d="M310.701,786.408L354.747,713.131L315.935,642.71L380.879,642.71L393.49,667.826L407.267,642.71L470.624,642.71L430.313,714.351L473.667,786.408L407.446,786.408L392.139,758.608L376.72,786.408L310.701,786.408Z" style="fill:rgb(37,26,47);"/>
                </g>
                <g transform="matrix(0.380703,0,0,0.788523,-18.0997,-306.467)">
                    <path d="M569.151,694.55L569.151,734.568L575.12,734.568L575.12,786.408L466.242,786.408L466.242,642.71L573.96,642.71L573.96,694.55L569.151,694.55Z" style="fill:rgb(37,26,47);"/>
                </g>
                <g transform="matrix(0.380703,0,0,0.788523,-18.0997,-306.467)">
                    <rect x="580.816" y="642.71" width="55.985" height="143.698" style="fill:rgb(37,26,47);"/>
                </g>
                <g transform="matrix(0.380703,0,0,0.788523,-18.0997,-306.467)">
                    <path d="M703.788,761.301L703.788,786.408L647.803,786.408L647.803,642.71L708.874,642.71C732.582,642.71 749.899,649.933 760.203,661.768C767.626,670.293 771.77,681.358 771.77,694.827C771.77,710.452 764.798,724.172 751.74,733.715L786.216,786.408L719.23,786.408C719.23,786.408 710.745,772.613 703.788,761.301Z" style="fill:rgb(37,26,47);"/>
                </g>
                <g transform="matrix(0.380703,0,0,0.788523,-18.0997,-306.467)">
                    <path d="M911.301,786.408L858.65,786.408L855.854,777.955C855.854,777.955 851.355,764.355 851.355,764.355C851.355,764.355 827.314,764.355 827.314,764.355L819.853,786.408L761.635,786.408L814.872,642.71L866.381,642.71L911.301,765.343L911.301,786.408Z" style="fill:rgb(37,26,47);"/>
                </g>
            </g>
            <g id="lixeira-tarawera" serif:id="lixeira tarawera" transform="matrix(2.62672,0,0,2.09177,49.7833,211.194)">
                <path d="M86.024,265.417L86.024,252.229L67.476,252.229L67.476,210.041L55.868,210.041L55.868,265.417L86.024,265.417Z" style="fill-rule:nonzero;"/>
                <rect x="89.095" y="210.041" width="11.608" height="55.376" style="fill-rule:nonzero;"/>
                <path d="M124.288,265.417L132.702,246.367L141.055,265.417L154.813,265.417L141.546,237.729L153.953,210.041L140.994,210.041L133.009,228.32L125.7,210.041L112.188,210.041L124.104,237.189L110.592,265.417L124.288,265.417Z" style="fill-rule:nonzero;"/>
                <path d="M195.901,252.768L176.309,252.768L176.309,243.282L193.69,243.282L193.69,230.633L176.309,230.633L176.309,222.69L195.471,222.69L195.471,210.041L164.701,210.041L164.701,265.417L195.901,265.417L195.901,252.768Z" style="fill-rule:nonzero;"/>
                <rect x="207.141" y="210.041" width="11.608" height="55.376" style="fill-rule:nonzero;"/>
                <path d="M243.562,265.417L243.562,246.984L247.37,246.984L256.398,265.417L270.217,265.417L259.407,244.67C265.365,241.508 268.743,235.647 268.743,228.551C268.743,216.751 261.926,210.041 250.011,210.041L231.954,210.041L231.954,265.417L243.562,265.417ZM243.562,222.073L249.519,222.073C254.678,222.073 257.074,224.155 257.074,228.551C257.074,232.947 254.678,234.953 249.519,234.953L243.562,234.953L243.562,222.073Z" style="fill-rule:nonzero;"/>
                <path d="M308.788,265.417L321.317,265.417L305.164,210.041L292.45,210.041L276.113,265.417L287.844,265.417L290.608,255.159L306.085,255.159L308.788,265.417ZM298.469,226.083L303.076,243.668L293.74,243.668L298.469,226.083Z" style="fill-rule:nonzero;"/>
            </g>
        </g>
    </g>
    <g transform="matrix(0.484445,0,0,0.484445,237.805,49.1682)">
        <g transform="matrix(6.55038,0,0,6.0296,-957.153,-117.852)">
            <path d="M180.894,77.939L180.533,77.461L178.966,72.974L178.815,71.018L178.865,70.367L178.865,44.527L178.815,43.979L179.06,41.619L179.733,39.463L181.829,36.073C183.445,34.16 186.091,32.16 189.838,30.479C199.446,26.168 218.768,22.973 241.061,22.973C263.354,22.973 282.676,26.168 292.283,30.479C296.031,32.16 298.676,34.16 300.293,36.073L302.389,39.463L303.062,41.619L303.307,43.979L303.257,44.527L303.257,70.367L303.307,71.018L303.156,72.974L301.589,77.461L301.228,77.939C301.228,77.939 292.333,180.549 292.333,180.543C292.206,185.822 289.69,191 284.634,195.39C276.44,202.507 260.074,207.889 241.061,207.889C222.047,207.889 205.682,202.507 197.488,195.39C192.429,190.997 189.912,185.815 189.789,180.549L180.894,77.939Z"/>
        </g>
        <g transform="matrix(0.796665,0,0,2.37356,-154.257,514.004)">
            <path d="M556.05,-67.017C547.969,-69.599 543.046,-72.291 541.661,-75.061C541.393,-75.598 541.257,-76.138 541.257,-76.68C541.257,-77.222 541.393,-77.762 541.661,-78.298L541.661,-142.728C541.393,-143.18 541.257,-143.633 541.257,-144.089C541.257,-161.296 734.178,-175.266 971.802,-175.266C1209.43,-175.266 1402.35,-161.296 1402.35,-144.089C1402.35,-143.633 1402.21,-143.18 1401.94,-142.728L1401.94,-78.298C1402.21,-77.762 1402.35,-77.222 1402.35,-76.68C1402.35,-76.138 1402.21,-75.598 1401.94,-75.061C1400.56,-72.291 1395.63,-69.599 1387.55,-67.017L1314.48,195.317C1314.48,221.828 1160.93,243.352 971.802,243.352C782.672,243.352 629.123,221.828 629.123,195.317L556.05,-67.017Z" style="fill:rgb(37,26,47);"/>
        </g>
        <g id="rim-shadow" serif:id="rim shadow" transform="matrix(0.796665,0,0,2.37356,-154.257,514.004)">
            <path d="M629.123,195.317L553.809,-75.061L1389.79,-75.061L1314.48,195.317C1314.48,221.828 1160.93,243.352 971.802,243.352C782.672,243.352 629.123,221.828 629.123,195.317Z" style="fill:url(#_Radial1);"/>
        </g>
        <g id="global-illumination" serif:id="global illumination" transform="matrix(0.796665,0,0,2.37356,-154.257,514.004)">
            <path d="M629.123,195.317L553.809,-75.061L1389.79,-75.061L1314.48,195.317C1314.48,221.828 1160.93,243.352 971.802,243.352C782.672,243.352 629.123,221.828 629.123,195.317Z" style="fill:url(#_Radial2);"/>
        </g>
        <g transform="matrix(1,0,0,0.872565,-351.857,22.076)">
            <path d="M629.123,175.522C628.91,174.295 628.802,173.06 628.802,171.82C628.802,125.013 782.495,87.012 971.802,87.012C1161.11,87.012 1314.8,125.013 1314.8,171.82C1314.8,173.06 1314.69,174.295 1314.48,175.522L1314.48,350.785C1314.69,352.245 1314.8,353.712 1314.8,355.187C1314.8,356.662 1314.69,358.13 1314.48,359.59C1306.63,413.213 1156.09,456.039 971.802,456.039C787.512,456.039 636.973,413.213 629.123,359.59C628.91,358.13 628.802,356.662 628.802,355.187C628.802,353.712 628.91,352.245 629.123,350.785L629.123,175.522Z" style="fill:rgb(37,26,47);"/>
        </g>
        <g transform="matrix(0.909106,0,0,1.22345,-263.526,-63.1531)">
            <ellipse cx="971.802" cy="195.317" rx="342.678" ry="48.035" style="fill:url(#_Radial3);"/>
        </g>
        <g transform="matrix(2.53495,0,0,2.63038,-49.5035,-86.4061)">
            <path d="M329.718,330.776C307.806,339.895 285.199,352.42 261.754,368.777L249.655,377.22L209.24,354.649L211.44,339.309C214.929,314.975 214.019,287.809 211.354,264.169L209.672,249.257L249.937,226.77L262.126,235.635C282.988,250.808 305.551,263.329 329.707,273.366L343.895,279.262L343.895,324.877L329.718,330.776Z"/>
        </g>
        <g transform="matrix(2.53495,0,0,2.63038,-49.5035,-86.4061)">
            <path d="M331.55,310.881C306.335,321.389 280.304,335.792 253.327,354.642L250.244,356.796L228.25,344.495L228.833,340.418C232.879,312.166 231.901,280.625 228.81,253.178L228.364,249.217L250.316,236.939L253.423,239.202C277.541,256.768 303.621,271.272 331.547,282.893L335.242,284.431L335.242,309.343L331.55,310.881Z" style="fill:rgb(37,26,47);"/>
        </g>
        <g transform="matrix(1.47072,1.99348e-16,-1.98318e-16,1.47835,-362.36,262.382)">
            <path d="M750.844,312.751C715.315,328.035 678.629,348.973 640.616,376.391L619.616,364.266C625.334,323.047 623.984,277.031 619.616,236.987L640.616,224.863C674.646,250.448 711.441,271.577 750.844,288.502L750.844,312.751Z" style="fill:rgb(79,255,176);"/>
        </g>
    </g>
    <g transform="matrix(1.80575,0,0,2.56339,47.1914,-304.232)">
        <path d="M139.335,505.985C138.458,506.95 135.75,507.804 132.313,508.579C132.397,510.832 132.481,513.264 132.481,515.754C132.481,523.403 131.219,525.419 128.441,525.419C126.168,525.419 124.737,524.293 123.39,518.185C122.97,516.406 122.549,513.619 122.128,510.417C118.845,510.951 115.731,511.425 113.289,511.9C112.027,512.137 110.848,512.374 109.754,512.611C106.135,519.668 102.683,525.419 101,525.419C99.064,525.419 93.424,522.988 93.424,520.32C93.424,519.312 94.855,516.999 96.707,514.034C94.771,513.145 93.171,511.307 93.171,509.824C93.171,508.461 96.454,507.156 101.505,506.089C102.01,505.199 102.431,504.369 102.852,503.48C104.788,499.329 108.071,493.636 111.101,486.995C112.279,484.327 120.697,482.133 123.39,482.133C127.347,482.133 130.63,490.494 131.892,503.242L133.323,503.242C136.455,503.242 138.377,503.463 139.188,504.227C139.705,503.488 141.496,502.77 144.169,502.175C146.02,501.76 148.461,501.345 151.155,500.989C154.354,486.284 159.32,479.346 170.6,479.346C175.65,479.346 181.122,483.378 181.122,488.537C181.122,491.798 179.606,493.755 177.081,493.755C172.199,493.755 173.209,486.58 170.01,486.58C166.812,486.58 164.539,493.874 162.603,499.981C165.802,499.863 169.084,499.744 172.367,499.744C174.438,499.744 175.962,499.996 176.994,500.387C176.941,500.187 176.913,499.991 176.913,499.803C176.913,498.499 182.384,497.372 189.96,496.601C190.886,493.399 191.559,490.138 191.559,487.055C191.559,485.987 192.149,485.276 194.085,485.276C196.526,485.276 203.091,488.122 203.091,490.909C203.091,492.095 202.67,493.874 201.997,495.89C204.017,495.83 206.122,495.771 208.142,495.771C212.603,495.771 214.455,496.542 214.455,497.787C214.455,499.744 207.889,500.811 199.556,501.997C198.293,504.962 196.862,507.986 195.768,510.536C194.253,513.975 192.485,517.474 192.485,518.185C192.485,518.541 192.738,518.541 193.495,518.541C196.778,518.541 204.438,515.873 206.627,515.873C207.081,515.873 207.44,515.919 207.724,516.007C207.663,515.591 207.632,515.17 207.632,514.746C207.632,506.326 220.343,494.941 230.444,494.941C238.609,494.941 245.343,501.523 245.343,506.029C245.343,510.002 236.084,513.56 227.582,513.56C223.878,513.56 220.848,513.323 218.575,512.967C218.07,514.034 217.818,515.102 217.818,515.991C217.818,518.126 218.07,519.134 222.363,519.134C232.969,519.134 235.494,517.474 237.851,517.474C240.461,517.474 241.303,518.126 241.303,519.075C241.303,522.158 232.633,525.538 224.131,525.538C215.578,525.538 210.417,522.481 208.493,518.504C207.038,521.329 199.138,525.538 191.307,525.538C188.024,525.538 181.206,522.277 181.206,519.252C181.206,516.643 184.404,510.773 187.266,503.895C185.162,504.31 183.478,504.547 182.553,504.547C181.147,504.547 179.619,503.738 178.509,502.686C177.193,505.011 168.547,505.986 160.33,506.86C156.795,517.355 154.438,525.479 150.734,525.479C148.546,525.479 144.842,522.099 144.842,520.498C144.842,518.837 147.199,516.406 149.387,508.579C147.788,508.876 146.525,509.053 145.431,509.053C142.817,509.053 140.203,507.826 139.335,505.985ZM119.603,491.798C118.172,495.06 116.067,499.566 113.879,504.25C116.236,504.013 118.677,503.835 121.202,503.658C120.613,499.447 120.108,495.119 119.603,491.798ZM230.949,502.234C228.087,502.234 224.552,504.784 221.858,507.868C222.616,507.927 223.373,507.927 224.047,507.927C229.602,507.927 235.579,507.393 235.579,505.081C235.579,504.31 232.464,502.234 230.949,502.234ZM259.064,511.959C256.286,520.32 253.676,525.479 249.636,525.479C246.016,525.479 244.585,522.158 244.585,519.905C244.585,517.711 247.363,514.509 248.373,510.654C248.963,508.52 249.131,506.622 249.131,504.962C249.131,502.175 248.626,499.922 248.626,498.262C248.626,496.364 249.215,494.941 251.572,494.941C253.592,494.941 256.117,495.89 257.38,498.617C261.252,496.186 266.219,494.644 269.67,494.644C273.289,494.644 275.815,495.178 275.815,496.72C275.815,498.973 272.953,499.922 269.586,501.464C265.713,503.183 261.084,505.733 259.064,511.959ZM348.431,505.021C348.431,512.018 319.98,525.479 306.765,525.479C304.913,525.479 299.02,520.676 299.02,518.956C299.02,514.449 306.849,499.329 309.29,490.138C305.165,488.181 302.219,485.216 302.219,483.319C302.219,482.37 302.892,481.955 303.903,481.955C321.495,481.955 348.431,492.688 348.431,505.021ZM312.657,512.196C311.815,514.034 311.142,515.991 310.552,517.058C321.579,514.449 336.31,506.622 336.31,503.361C336.31,500.871 328.734,495.949 319.812,493.162C319.475,496.364 317.034,502.649 312.657,512.196ZM385.238,503.42C385.238,504.903 384.144,506.919 382.713,508.698C383.639,509.291 384.228,509.884 384.228,510.299C384.228,512.078 382.797,513.738 381.619,518.304C380.693,521.98 380.188,525.538 377.662,525.538C375.642,525.538 372.949,523.107 371.854,519.845C367.393,523.047 362.511,525.538 358.555,525.538C353.841,525.538 346.517,520.794 346.517,517.414C346.517,511.544 359.228,494.941 372.444,494.941C376.905,494.941 385.238,499.685 385.238,503.42ZM356.955,517.296C356.955,517.948 357.124,518.067 358.218,518.067C361.501,518.067 372.107,514.094 374.127,506.682C374.211,506.148 374.716,505.911 375.558,505.851C375.39,503.658 374.969,502.472 373.959,502.472C366.551,502.472 356.955,514.212 356.955,517.296ZM400.221,511.959C397.444,520.32 394.834,525.479 390.794,525.479C387.174,525.479 385.743,522.158 385.743,519.905C385.743,517.711 388.521,514.509 389.531,510.654C390.12,508.52 390.289,506.622 390.289,504.962C390.289,502.175 389.784,499.922 389.784,498.262C389.784,496.364 390.373,494.941 392.73,494.941C394.75,494.941 397.275,495.89 398.538,498.617C402.41,496.186 407.376,494.644 410.828,494.644C414.447,494.644 416.972,495.178 416.972,496.72C416.972,498.973 414.11,499.922 410.743,501.464C406.871,503.183 402.242,505.733 400.221,511.959ZM424.535,478.338C426.976,478.338 433.205,482.548 433.205,485.75C433.205,489.96 427.734,505.259 423.272,512.374C432.195,504.369 442.128,494.941 445.495,494.941C448.357,494.941 452.649,498.439 452.649,500.396C452.649,501.938 438.34,508.223 438.34,512.255C438.34,519.015 449.282,520.913 449.282,523.225C449.282,524.411 448.104,525.538 444.821,525.538C440.107,525.538 434.973,522.277 430.764,519.252L428.744,517.829C424.535,522.099 420.579,525.538 418.643,525.538C415.949,525.538 410.898,521.506 410.898,519.845C410.898,518.007 422.178,496.127 422.178,480.176C422.178,479.049 422.683,478.338 424.535,478.338Z" style="fill:rgb(79,255,176);"/>
    </g>
    <defs>
        <radialGradient id="_Radial1" cx="0" cy="0" r="1" gradientUnits="userSpaceOnUse" gradientTransform="matrix(0,226.63,-675.214,0,971.802,-142.485)"><stop offset="0" style="stop-color:black;stop-opacity:0.4"/><stop offset="0.75" style="stop-color:rgb(37,26,47);stop-opacity:0"/><stop offset="1" style="stop-color:rgb(37,26,47);stop-opacity:0"/></radialGradient>
        <radialGradient id="_Radial2" cx="0" cy="0" r="1" gradientUnits="userSpaceOnUse" gradientTransform="matrix(430.545,0,0,256.498,971.802,81.2321)"><stop offset="0" style="stop-color:rgb(37,26,47);stop-opacity:0"/><stop offset="1" style="stop-color:black;stop-opacity:0.29"/></radialGradient>
        <radialGradient id="_Radial3" cx="0" cy="0" r="1" gradientUnits="userSpaceOnUse" gradientTransform="matrix(342.678,0,0,142.085,971.802,280.639)"><stop offset="0" style="stop-color:rgb(79,255,176);stop-opacity:1"/><stop offset="1" style="stop-color:black;stop-opacity:0.1"/></radialGradient>
    </defs>
</svg>
