<?xml version="1.0" encoding="UTF-8" standalone="no"?>
<!DOCTYPE svg PUBLIC "-//W3C//DTD SVG 1.1//EN" "http://www.w3.org/Graphics/SVG/1.1/DTD/svg11.dtd">
<svg width="100%" height="100%" viewBox="0 0 96 96" version="1.1" xmlns="http://www.w3.org/2000/svg" xmlns:xlink="http://www.w3.org/1999/xlink" xml:space="preserve" xmlns:serif="http://www.serif.com/" style="fill-rule:evenodd;clip-rule:evenodd;stroke-linejoin:round;stroke-miterlimit:2;">
    <g id="tiktok" transform="matrix(0.128,0,0,0.128,-3.19958,-3.19999)">
        <path d="M644.047,185.406C638.985,182.79 634.057,179.922 629.281,176.813C615.395,167.632 602.663,156.815 591.359,144.594C563.078,112.234 552.516,79.406 548.625,56.422L548.781,56.422C545.531,37.344 546.875,25 547.078,25L418.266,25L418.266,523.094C418.266,529.781 418.266,536.391 417.984,542.922C417.984,543.734 417.906,544.484 417.859,545.359C417.859,545.719 417.859,546.094 417.781,546.469L417.781,546.75C415.027,583.007 394.365,615.6 362.75,633.562C346.51,642.802 328.138,647.649 309.453,647.625C249.438,647.625 200.797,598.688 200.797,538.25C200.797,477.812 249.437,428.875 309.453,428.875C320.814,428.864 332.105,430.652 342.906,434.172L343.063,303.016C276.799,294.456 209.89,314.03 158.687,356.953C136.486,376.243 117.82,399.261 103.531,424.969C98.094,434.344 77.578,472.016 75.094,533.156C73.531,567.859 83.953,603.812 88.922,618.672L88.922,618.984C92.047,627.734 104.156,657.594 123.891,682.766C139.804,702.957 158.605,720.695 179.688,735.406L179.688,735.094L180,735.406C242.359,777.781 311.5,775 311.5,775C323.469,774.516 363.563,775 409.094,753.422C459.594,729.5 488.344,693.859 488.344,693.859C506.71,672.564 521.316,648.294 531.531,622.094C543.187,591.453 547.078,554.703 547.078,540.016L547.078,275.766C548.641,276.703 569.453,290.469 569.453,290.469C569.453,290.469 599.437,309.688 646.219,322.203C679.781,331.109 725,332.984 725,332.984L725,205.109C709.156,206.828 676.984,201.828 644.047,185.406Z" style="fill:rgb(47,93,98);fill-rule:nonzero;"/>
    </g>
</svg>
