<?xml version="1.0" encoding="UTF-8" standalone="no"?>
<!DOCTYPE svg PUBLIC "-//W3C//DTD SVG 1.1//EN" "http://www.w3.org/Graphics/SVG/1.1/DTD/svg11.dtd">
<svg width="100%" height="100%" viewBox="0 0 96 96" version="1.1" xmlns="http://www.w3.org/2000/svg" xmlns:xlink="http://www.w3.org/1999/xlink" xml:space="preserve" xmlns:serif="http://www.serif.com/" style="fill-rule:evenodd;clip-rule:evenodd;stroke-linejoin:round;stroke-miterlimit:2;">
    <g id="discord" transform="matrix(0.12,0,0,0.12,0,0)">
        <path d="M677.676,140.927C625.891,116.698 570.519,99.089 512.63,89.063C505.52,101.916 497.214,119.205 491.488,132.958C429.95,123.703 368.978,123.703 308.572,132.958C302.846,119.205 294.352,101.916 287.179,89.063C229.227,99.089 173.792,116.762 122.006,141.055C17.555,298.895 -10.76,452.815 3.397,604.549C72.675,656.284 139.814,687.712 205.819,708.277C222.116,685.847 236.651,662.004 249.173,636.876C225.325,627.814 202.484,616.632 180.902,603.65C186.628,599.408 192.229,594.973 197.639,590.41C329.273,651.979 472.297,651.979 602.358,590.41C607.832,594.973 613.432,599.408 619.095,603.65C597.449,616.695 574.546,627.878 550.699,636.941C563.22,662.004 577.692,685.912 594.052,708.34C660.121,687.775 727.322,656.349 796.6,604.549C813.212,428.651 768.222,276.145 677.676,140.927ZM267.106,511.234C227.591,511.234 195.185,474.344 195.185,429.422C195.185,384.499 226.899,347.545 267.106,347.545C307.314,347.545 339.719,384.434 339.027,429.422C339.089,474.344 307.314,511.234 267.106,511.234ZM532.891,511.234C493.376,511.234 460.971,474.344 460.971,429.422C460.971,384.499 492.683,347.545 532.891,347.545C573.098,347.545 605.504,384.434 604.812,429.422C604.812,474.344 573.098,511.234 532.891,511.234Z" style="fill:rgb(47,93,98);fill-rule:nonzero;"/>
    </g>
</svg>
