<?xml version="1.0" encoding="UTF-8" standalone="no"?>
<!DOCTYPE svg PUBLIC "-//W3C//DTD SVG 1.1//EN" "http://www.w3.org/Graphics/SVG/1.1/DTD/svg11.dtd">
<svg width="100%" height="100%" viewBox="0 0 96 96" version="1.1" xmlns="http://www.w3.org/2000/svg" xmlns:xlink="http://www.w3.org/1999/xlink" xml:space="preserve" xmlns:serif="http://www.serif.com/" style="fill-rule:evenodd;clip-rule:evenodd;stroke-linejoin:round;stroke-miterlimit:2;">
    <g id="instagram" transform="matrix(0.160669,0,0,0.160669,-16.0769,-16.0669)">
        <path d="M520,100C620,100 700,180 697.5,280L697.5,517.5C697.5,617.5 617.5,697.5 517.5,697.5L280,697.5C180,697.5 100,617.5 100,517.5L100,280C100,180 180,100 282.5,100L520,100ZM642.5,520L642.5,282.5C642.5,212.5 585,157.5 517.5,157.5L280,157.5C210,157.5 155,215 155,282.5L155,520C155,590 212.5,645 280,645L517.5,645C587.5,645 642.5,587.5 642.5,520ZM557.5,210C577.5,210 592.5,225 592.5,245C592.5,265 577.5,280 557.5,280C537.5,280 522.5,265 522.5,245C522.5,225 537.5,210 557.5,210ZM400,255C482.5,255 547.5,322.5 547.5,402.5C547.5,482.5 480,550 400,550C320,550 252.5,482.5 252.5,402.5C252.5,322.5 317.5,255 400,255ZM400,497.5C452.5,497.5 495,455 495,402.5C495,350 452.5,307.5 400,307.5C347.5,307.5 305,350 305,402.5C305,455 347.5,497.5 400,497.5Z" style="fill:rgb(47,93,98);"/>
    </g>
</svg>
