<?xml version="1.0" encoding="UTF-8" standalone="no"?>
<!DOCTYPE svg PUBLIC "-//W3C//DTD SVG 1.1//EN" "http://www.w3.org/Graphics/SVG/1.1/DTD/svg11.dtd">
<svg width="100%" height="100%" viewBox="0 0 256 64" version="1.1" xmlns="http://www.w3.org/2000/svg" xmlns:xlink="http://www.w3.org/1999/xlink" xml:space="preserve" xmlns:serif="http://www.serif.com/" style="fill-rule:evenodd;clip-rule:evenodd;stroke-linejoin:round;stroke-miterlimit:2;">
    <path d="M256,10.452L256,53.548C256,59.317 251.317,64 245.548,64L10.452,64C4.683,64 0,59.317 0,53.548L0,10.452C0,4.683 4.683,0 10.452,0L245.548,0C251.317,0 256,4.683 256,10.452Z" style="fill:rgb(235,235,235);"/>
    <g transform="matrix(0.671023,0,0,0.671023,15.4163,10.5273)">
        <path d="M0.042,29.897C0.037,29.889 0.033,29.882 0.028,29.874C1.124,13.193 15.001,0 31.959,0C49.632,0 63.959,14.327 63.959,32C63.959,49.673 49.632,64 31.959,64C17.537,64 5.341,54.451 1.345,41.335L13.458,46.333C14.058,49.061 15.938,51.453 18.7,52.603C23.194,54.47 28.43,52.313 30.303,47.821C30.786,46.664 31.019,45.418 30.987,44.165L42.18,36.16L42.455,36.165C49.16,36.165 54.61,30.699 54.61,23.985C54.61,17.271 49.17,11.825 42.455,11.811C35.753,11.811 30.3,17.271 30.3,23.985L30.31,23.985L30.313,24.143L22.483,35.518C21.215,35.46 19.943,35.683 18.735,36.18C18.209,36.394 17.707,36.662 17.237,36.98L0.042,29.893C0.042,29.893 0.042,29.894 0.042,29.897ZM28.43,47.035C26.976,50.535 22.964,52.182 19.477,50.729C17.93,50.079 16.675,48.882 15.953,47.367L19.91,49.007C20.524,49.262 21.182,49.394 21.847,49.394C23.879,49.394 25.721,48.165 26.501,46.288C27.565,43.733 26.34,40.754 23.786,39.687L19.686,37.992C21.264,37.392 23.058,37.372 24.736,38.069C26.436,38.772 27.736,40.096 28.432,41.789C29.128,43.482 29.124,45.349 28.422,47.035L28.43,47.035ZM42.466,32.1C38.022,32.088 34.372,28.431 34.368,23.987C34.373,19.544 38.023,15.888 42.466,15.876C46.91,15.887 50.561,19.543 50.566,23.987C50.562,28.431 46.91,32.089 42.466,32.1ZM36.398,23.974C36.396,27.313 39.139,30.062 42.478,30.067C45.818,30.064 48.564,27.314 48.562,23.974C48.562,20.609 45.833,17.879 42.478,17.879C39.139,17.884 36.395,20.635 36.398,23.974Z" style="fill:url(#_Linear1);"/>
    </g>
    <g transform="matrix(1.08659,0,0,1.48995,-15.3415,-19.8855)">
        <path d="M90.307,39.884L93.979,39.884L97.516,29.764L93.941,29.764L92.047,35.824L89.921,29.764L86.229,29.764L84.026,35.796L82.152,29.764L78.576,29.764L82.094,39.884L85.785,39.884L88.046,33.583L90.307,39.884Z" style="fill:rgb(11,30,76);fill-rule:nonzero;"/>
        <rect x="98.985" y="29.764" width="3.653" height="10.12" style="fill:rgb(11,30,76);fill-rule:nonzero;"/>
        <path d="M116.456,36.571C116.456,35.106 115.142,34.218 112.668,33.865L109.982,33.485C109.247,33.386 108.629,33.118 108.629,32.667C108.629,32.118 109.286,31.695 110.368,31.695C111.586,31.695 112.436,32.287 112.533,33.203L116.224,33.203C116.012,31.018 113.634,29.637 110.33,29.637C107.218,29.637 104.938,30.962 104.938,32.851C104.938,34.486 106.406,35.43 108.629,35.74L111.161,36.092C111.972,36.205 112.571,36.529 112.571,36.966C112.571,37.6 111.74,37.953 110.484,37.953C108.977,37.953 108.107,37.347 108.068,36.388L104.377,36.388C104.628,38.629 106.947,40.025 110.562,40.025C114.176,40.025 116.456,38.657 116.456,36.571Z" style="fill:rgb(11,30,76);fill-rule:nonzero;"/>
        <path d="M121.984,39.884L121.984,35.839L127.105,35.839L127.105,39.884L130.758,39.884L130.758,29.764L127.105,29.764L127.105,33.527L121.984,33.527L121.984,29.764L118.331,29.764L118.331,39.884L121.984,39.884Z" style="fill:rgb(11,30,76);fill-rule:nonzero;"/>
        <path d="M142.953,39.884L142.953,37.474L137.116,37.474L137.116,29.764L133.463,29.764L133.463,39.884L142.953,39.884Z" style="fill:rgb(11,30,76);fill-rule:nonzero;"/>
        <rect x="144.885" y="29.764" width="3.653" height="10.12" style="fill:rgb(11,30,76);fill-rule:nonzero;"/>
        <path d="M162.357,36.571C162.357,35.106 161.042,34.218 158.569,33.865L155.882,33.485C155.148,33.386 154.529,33.118 154.529,32.667C154.529,32.118 155.187,31.695 156.269,31.695C157.486,31.695 158.337,32.287 158.433,33.203L162.125,33.203C161.912,31.018 159.535,29.637 156.23,29.637C153.119,29.637 150.838,30.962 150.838,32.851C150.838,34.486 152.307,35.43 154.529,35.74L157.061,36.092C157.873,36.205 158.472,36.529 158.472,36.966C158.472,37.6 157.641,37.953 156.385,37.953C154.877,37.953 154.008,37.347 153.969,36.388L150.278,36.388C150.529,38.629 152.848,40.025 156.462,40.025C160.076,40.025 162.357,38.657 162.357,36.571Z" style="fill:rgb(11,30,76);fill-rule:nonzero;"/>
        <path d="M170.686,39.884L170.686,32.174L174.938,32.174L174.938,29.764L162.782,29.764L162.782,32.174L167.034,32.174L167.034,39.884L170.686,39.884Z" style="fill:rgb(11,30,76);fill-rule:nonzero;"/>
        <path d="M189.491,39.884L193.009,39.884L193.009,29.764L189.665,29.764L189.665,35.613L184.544,29.764L180.62,29.764L180.62,39.884L183.964,39.884L183.964,33.569L189.491,39.884Z" style="fill:rgb(11,30,76);fill-rule:nonzero;"/>
        <path d="M202.053,40.095C206.073,40.095 209.224,37.882 209.224,34.81C209.224,31.737 206.073,29.552 202.053,29.552C198.053,29.552 194.903,31.737 194.903,34.81C194.903,37.882 198.053,40.095 202.053,40.095ZM202.053,37.713C199.87,37.713 198.652,36.402 198.652,34.81C198.652,33.217 199.87,31.934 202.053,31.934C204.237,31.934 205.455,33.217 205.455,34.81C205.455,36.402 204.237,37.713 202.053,37.713Z" style="fill:rgb(11,30,76);fill-rule:nonzero;"/>
        <path d="M221.225,39.884L224.897,39.884L228.434,29.764L224.859,29.764L222.965,35.824L220.839,29.764L217.147,29.764L214.944,35.796L213.07,29.764L209.494,29.764L213.012,39.884L216.703,39.884L218.964,33.583L221.225,39.884Z" style="fill:rgb(11,30,76);fill-rule:nonzero;"/>
        <path d="M232.705,36.586L233.594,29.764L229.342,29.764L230.212,36.586L232.705,36.586ZM233.633,38.474C233.633,37.614 232.744,36.98 231.468,36.98C230.212,36.98 229.323,37.614 229.323,38.474C229.323,39.334 230.232,39.954 231.468,39.954C232.705,39.954 233.633,39.334 233.633,38.474Z" style="fill:rgb(11,30,76);fill-rule:nonzero;"/>
    </g>
    <defs>
        <linearGradient id="_Linear1" x1="0" y1="0" x2="1" y2="0" gradientUnits="userSpaceOnUse" gradientTransform="matrix(3.91887e-15,64,-64,3.91887e-15,31.9935,0)"><stop offset="0" style="stop-color:rgb(17,29,46);stop-opacity:1"/><stop offset="0.21" style="stop-color:rgb(5,24,57);stop-opacity:1"/><stop offset="0.41" style="stop-color:rgb(10,27,72);stop-opacity:1"/><stop offset="0.58" style="stop-color:rgb(19,46,98);stop-opacity:1"/><stop offset="0.74" style="stop-color:rgb(20,75,126);stop-opacity:1"/><stop offset="0.87" style="stop-color:rgb(19,100,151);stop-opacity:1"/><stop offset="1" style="stop-color:rgb(19,135,184);stop-opacity:1"/></linearGradient>
    </defs>
</svg>
