<?xml version="1.0" encoding="UTF-8" standalone="no"?>
<!DOCTYPE svg PUBLIC "-//W3C//DTD SVG 1.1//EN" "http://www.w3.org/Graphics/SVG/1.1/DTD/svg11.dtd">
<svg width="100%" height="100%" viewBox="0 0 256 64" version="1.1" xmlns="http://www.w3.org/2000/svg" xmlns:xlink="http://www.w3.org/1999/xlink" xml:space="preserve" xmlns:serif="http://www.serif.com/" style="fill-rule:evenodd;clip-rule:evenodd;stroke-linejoin:round;stroke-miterlimit:2;">
    <path d="M256,10.452L256,53.548C256,59.317 251.317,64 245.548,64L10.452,64C4.683,64 0,59.317 0,53.548L0,10.452C0,4.683 4.683,0 10.452,0L245.548,0C251.317,0 256,4.683 256,10.452Z" style="fill:rgb(235,235,235);"/>
    <g transform="matrix(0.671023,0,0,0.671023,15.4163,10.5273)">
        <path d="M0.042,29.897C0.037,29.889 0.033,29.882 0.028,29.874C1.124,13.193 15.001,0 31.959,0C49.632,0 63.959,14.327 63.959,32C63.959,49.673 49.632,64 31.959,64C17.537,64 5.341,54.451 1.345,41.335L13.458,46.333C14.058,49.061 15.938,51.453 18.7,52.603C23.194,54.47 28.43,52.313 30.303,47.821C30.786,46.664 31.019,45.418 30.987,44.165L42.18,36.16L42.455,36.165C49.16,36.165 54.61,30.699 54.61,23.985C54.61,17.271 49.17,11.825 42.455,11.811C35.753,11.811 30.3,17.271 30.3,23.985L30.31,23.985L30.313,24.143L22.483,35.518C21.215,35.46 19.943,35.683 18.735,36.18C18.209,36.394 17.707,36.662 17.237,36.98L0.042,29.893L0.042,29.897ZM28.43,47.035C26.976,50.535 22.964,52.182 19.477,50.729C17.93,50.079 16.675,48.882 15.953,47.367L19.91,49.007C20.524,49.262 21.182,49.394 21.847,49.394C23.879,49.394 25.721,48.165 26.501,46.288C27.565,43.733 26.34,40.754 23.786,39.687L19.686,37.992C21.264,37.392 23.058,37.372 24.736,38.069C26.436,38.772 27.736,40.096 28.432,41.789C29.128,43.482 29.124,45.349 28.422,47.035L28.43,47.035ZM42.466,32.1C38.022,32.088 34.372,28.431 34.368,23.987C34.373,19.544 38.023,15.888 42.466,15.876C46.91,15.887 50.561,19.543 50.566,23.987C50.562,28.431 46.91,32.089 42.466,32.1ZM36.398,23.974C36.396,27.313 39.139,30.062 42.478,30.067C45.818,30.064 48.564,27.314 48.562,23.974C48.562,20.609 45.833,17.879 42.478,17.879C39.139,17.884 36.395,20.635 36.398,23.974Z" style="fill:url(#_Linear1);"/>
    </g>
    <g transform="matrix(0.990019,0,0,1.48907,3.38647,-46.7924)">
        <path d="M82.335,55.773C87.425,55.773 90.484,54.117 90.484,51.201C90.484,48.303 87.425,46.791 82.335,46.791L74.755,46.791L74.755,59.715L79.872,59.715L79.872,55.773L82.335,55.773ZM82.308,49.653C84.339,49.653 85.395,50.229 85.395,51.237C85.395,52.227 84.339,52.911 82.308,52.911L79.872,52.911L79.872,49.653L82.308,49.653Z" style="fill:rgb(11,30,76);fill-rule:nonzero;"/>
        <path d="M106.377,59.715L106.377,56.637L98.2,56.637L98.2,46.791L93.083,46.791L93.083,59.715L106.377,59.715Z" style="fill:rgb(11,30,76);fill-rule:nonzero;"/>
        <path d="M121.754,59.715L127.277,59.715L120.157,46.791L114.553,46.791L107.351,59.715L112.522,59.715L113.741,57.321L120.563,57.321L121.754,59.715ZM117.206,50.535L119.236,54.639L115.121,54.639L117.206,50.535Z" style="fill:rgb(11,30,76);fill-rule:nonzero;"/>
        <path d="M137.024,54.855L143.873,46.791L138.729,46.791L134.641,51.741L130.634,46.791L125.111,46.791L131.907,54.855L131.907,59.715L137.024,59.715L137.024,54.855Z" style="fill:rgb(11,30,76);fill-rule:nonzero;"/>
        <path d="M163.962,59.715L168.889,59.715L168.889,46.791L164.205,46.791L164.205,54.261L157.031,46.791L151.535,46.791L151.535,59.715L156.219,59.715L156.219,51.651L163.962,59.715Z" style="fill:rgb(11,30,76);fill-rule:nonzero;"/>
        <path d="M181.56,59.985C187.191,59.985 191.604,57.159 191.604,53.235C191.604,49.311 187.191,46.521 181.56,46.521C175.955,46.521 171.542,49.311 171.542,53.235C171.542,57.159 175.955,59.985 181.56,59.985ZM181.56,56.943C178.5,56.943 176.795,55.269 176.795,53.235C176.795,51.201 178.5,49.563 181.56,49.563C184.619,49.563 186.325,51.201 186.325,53.235C186.325,55.269 184.619,56.943 181.56,56.943Z" style="fill:rgb(11,30,76);fill-rule:nonzero;"/>
        <path d="M208.416,59.715L213.56,59.715L218.515,46.791L213.506,46.791L210.853,54.531L207.875,46.791L202.704,46.791L199.618,54.495L196.991,46.791L191.983,46.791L196.91,59.715L202.081,59.715L205.249,51.669L208.416,59.715Z" style="fill:rgb(11,30,76);fill-rule:nonzero;"/>
        <path d="M224.498,55.503L225.743,46.791L219.787,46.791L221.006,55.503L224.498,55.503ZM225.798,57.915C225.798,56.817 224.552,56.007 222.765,56.007C221.006,56.007 219.76,56.817 219.76,57.915C219.76,59.013 221.033,59.805 222.765,59.805C224.498,59.805 225.798,59.013 225.798,57.915Z" style="fill:rgb(11,30,76);fill-rule:nonzero;"/>
    </g>
    <defs>
        <linearGradient id="_Linear1" x1="0" y1="0" x2="1" y2="0" gradientUnits="userSpaceOnUse" gradientTransform="matrix(3.91887e-15,64,-64,3.91887e-15,31.9935,0)"><stop offset="0" style="stop-color:rgb(17,29,46);stop-opacity:1"/><stop offset="0.21" style="stop-color:rgb(5,24,57);stop-opacity:1"/><stop offset="0.41" style="stop-color:rgb(10,27,72);stop-opacity:1"/><stop offset="0.58" style="stop-color:rgb(19,46,98);stop-opacity:1"/><stop offset="0.74" style="stop-color:rgb(20,75,126);stop-opacity:1"/><stop offset="0.87" style="stop-color:rgb(19,100,151);stop-opacity:1"/><stop offset="1" style="stop-color:rgb(19,135,184);stop-opacity:1"/></linearGradient>
    </defs>
</svg>
